<?xml version="1.0" encoding="UTF-8" standalone="no"?>
<svg
   height="16"
   viewBox="0 0 16 16"
   width="16"
   version="1.1"
   id="svg185"
   sodipodi:docname="RichTextButton.svg"
   inkscape:version="1.2.2 (732a01da63, 2022-12-09)"
   xmlns:inkscape="http://www.inkscape.org/namespaces/inkscape"
   xmlns:sodipodi="http://sodipodi.sourceforge.net/DTD/sodipodi-0.dtd"
   xmlns="http://www.w3.org/2000/svg"
   xmlns:svg="http://www.w3.org/2000/svg">
  <defs
     id="defs189" />
  <sodipodi:namedview
     id="namedview187"
     pagecolor="#ffffff"
     bordercolor="#000000"
     borderopacity="0.25"
     inkscape:showpageshadow="2"
     inkscape:pageopacity="0.0"
     inkscape:pagecheckerboard="0"
     inkscape:deskcolor="#d1d1d1"
     showgrid="true"
     inkscape:zoom="36.63697"
     inkscape:cx="3.0706688"
     inkscape:cy="7.1239515"
     inkscape:window-width="1920"
     inkscape:window-height="1009"
     inkscape:window-x="-8"
     inkscape:window-y="-8"
     inkscape:window-maximized="1"
     inkscape:current-layer="svg185">
    <inkscape:grid
       type="xygrid"
       id="grid563"
       spacingx="0.5"
       spacingy="0.5" />
  </sodipodi:namedview>
  <path
     d="M 1,1 V 3 H 9 V 1 Z m 12,0 -3,3 h 2 v 4.5 h -2 l 3,3 3,-3 H 14 V 4 h 2 z M 1,5 V 7 H 3 V 5 Z M 5,5 V 7 H 9 V 5 Z M 1,9 v 2.5 h 2 c 0,-1 0.5,-2 1.5,-2 H 9 V 9 Z"
     fill="#8eef97"
     id="path183"
     style="display:inline"
     sodipodi:nodetypes="ccccccccccccccccccccccccccccccccc" />
  <path
     d="M 5,10 C 4.169,10 3.5,10.669 3.5,11.5 V 13 h -2 v 2 h 12 v -2 h -2 V 11.5 C 11.5,10.669 10.831,10 10,10 Z"
     fill="#8eef97"
     id="path308"
     sodipodi:nodetypes="ssccccccsss"
     style="display:inline" />
</svg>
